<?xml version="1.0" encoding="UTF-8"?>
<svg xmlns="http://www.w3.org/2000/svg" version="1.1" viewBox="0 0 241.4 288.6">
  <!-- Generator: Adobe Illustrator 28.6.0, SVG Export Plug-In . SVG Version: 1.2.0 Build 709)  -->
  <g>
    <g id="Layer_1">
      <path d="M233.2,93.8c-.5.4-.9.8-1.3,1.2-5.9,5.2-11.7,10.5-16.5,16.8-9.9,12.9-14.1,27.4-12.9,43.6.7,9,2.9,17.5,7,25.4,4.8,9.2,11,17.2,19.5,23.5,3.5,2.6,7.3,4.6,11.5,6,.3.1.6.3,1.1.4-.1.5-.2.9-.3,1.3-3,9.5-7.1,18.5-11.9,27.2-5.3,9.7-11.2,19-18.3,27.6-4.2,5.1-8.8,9.7-14.1,13.6-4.7,3.4-9.8,6-15.5,7.1-4.5.9-9,.6-13.5-.3-6.2-1.2-12.1-3.2-18-5.3-5.2-1.9-10.6-3.3-16.1-4.3-7.9-1.4-15.7-.8-23.3,1.6-3.6,1.1-7.1,2.4-10.6,3.8-5.6,2.2-11.2,4.2-17.1,5.1-6.9,1.1-13.4,0-19.6-2.9-5.3-2.5-9.9-6-14.1-10-5.9-5.6-11-11.9-15.5-18.7-9.8-14.8-18-30.5-24-47.3-4.4-12.4-7.5-25.2-8.8-38.3-1.5-15.7-.9-31.2,3-46.6,3.7-14.5,10.3-27.4,20.5-38.3,8.6-9.2,18.8-15.5,31.2-18.1,7.6-1.6,15.3-1.7,23-.7,8.8,1.1,17.2,3.5,25.7,5.9,4.1,1.2,8.3,2,12.5,3.1,5.1,1.3,10.3,1.1,15.3-.3,5.6-1.5,11.2-3.2,16.8-4.9,6.9-2.2,13.8-4.3,21-5.1,19.9-2.3,37.6,2.6,52.5,16.3,3.5,3.2,6.7,6.9,10,10.4.3.4.6.8,1,1.3h0Z"/>
      <path d="M118.4,70c.3-3.5.4-6.7.8-9.9.8-7.3,2.6-14.4,5.5-21.3,4.4-10.3,10.6-19.2,19.8-25.8,6.9-5,14.6-8.4,22.7-10.9,2.6-.8,5.2-1.4,7.9-2.2,1,2.1,1.1,4.3,1.1,6.4.2,6.7-1.2,13.1-3.2,19.4-4.4,13.9-12.7,25.2-24,34.3-6.3,5.1-13.5,8.2-21.6,9-2.5.3-5.1.6-7.6.9-.4,0-.8,0-1.5,0h0Z"/>
    </g>
  </g>
</svg>